<svg width="360" height="275" xmlns="http://www.w3.org/2000/svg" version="1.1" xmlns:xlink="http://www.w3.org/1999/xlink">
<defs><path fill="#1A3838" id="t1495528331768" d="M48.179,101.606c-0.404,0-0.707,0.101-0.909,0c-1.111-0.808-2.222-1.616-3.434-2.424c-0.707-0.505-1.515-1.01-2.222-1.515c-0.505,0.606-0.808,1.111-1.212,1.616c-0.808,1.111-1.818,1.717-3.333,1.818c-1.111,0.101-2.222,0.505-3.333,0.505c-0.808,0.101-1.616-0.202-2.323-0.505c-1.212-0.505-2.222-1.111-2.828-2.222c-0.202-0.303-0.505-0.505-0.707-0.707s-0.505-0.202-0.606-0.404c-1.616-2.121-3.333-4.141-4.242-6.767c-0.707-2.02-0.707-4.242-1.616-6.161l0-0.303c0.202-2.02-0.707-3.838-0.808-5.757c0-0.404,0.909-2.02,1.414-2.424c0.101-0.101,0.404-0.303,0.505-0.404c0.202-0.202,0.303-0.404,0.404-0.707c2.626-0.101,4.949,0.808,7.07,2.424c0.202,0.202,0.505,0.808,0.404,1.111c-0.303,1.313,0.303,2.525,0.303,3.737c0,1.313,0.202,2.525,0.404,3.838s0.404,2.727,0.808,4.04c0.404,1.111,0.909,2.121,1.515,3.03c0.606,1.111,1.616,1.111,2.222,0c1.111-1.818,2.02-3.737,3.03-5.555c0.101-0.303,0-0.707,0-1.01l0-1.515c0-0.202,0.101-0.404,0-0.505c-0.808-2.323-0.303-4.646-0.404-7.07c-0.101-1.212,0-2.525,0.808-3.737c0.707-1.313,1.818-1.717,3.232-1.414c1.717,0.303,3.03,1.212,4.141,2.525c0.505,0.707,0.303,1.414,0.202,2.121c-0.202,1.414-0.505,2.727,0,4.04c0.101,0.404-0.101,0.909-0.101,1.313c0,0.606-0.101,1.111-0.101,1.717c1.01-0.101,0.303-0.909,0.808-1.313c0.404,0.505,0.303,1.212,0.303,1.717c0,2.929,0.505,5.656,1.212,8.383c0.303,1.01,0.505,2.121,1.818,2.222c0.404,0.101,0.808,0,1.313,0c0,0,0.101-0.202,0.202-0.202c1.717-0.101,2.121-1.414,2.727-2.828c1.111-2.626,1.01-5.252,1.01-7.979c0-1.01,0.202-2.02,0.202-3.131c0.101-0.707,0-1.515,0.101-2.323c0.101-1.212,0.101-2.424,0.303-3.636c0.101-0.707,0.505-1.212,1.414-1.111c0.202-0.909,0.404-1.818,1.212-2.424c0.505,0.303,0.909,0.606,0.707,1.313c-0.101,0.202,0.202,0.606,0.404,1.01c0.505-0.606,0.909-1.01,1.414-1.515c0.303,0.606,0.404,1.313,0.808,1.717c0.404,0.303,1.01,0.505,1.414,1.111c-0.404,0-0.808,0.101-1.313,0.202c0.202,0.303,0.606,0.707,0.505,0.909c-0.303,0.808,0.505,0.606,0.707,0.909c0.202,0.404,0.101,0.808,0.101,1.414c-0.303-0.202-0.505-0.303-1.01-0.505c0.101,0.808,0.202,1.616,0.202,2.323c0,0.303,0.101,0.707,0,0.808c-1.01,0.909-0.606,2.121-1.01,3.232c0,0.202,0,0.606-0.202,0.808c-0.505,0.808-0.404,1.616-0.505,2.525c0,0.707-0.101,1.515-0.101,2.323c-0.101,0.707,0,1.212,0.808,1.515c0,0.505-0.404,0.808-0.101,1.414c0.404,0.808,0.404,1.717-0.505,2.424c-0.303-0.101-0.505-0.303-0.808-0.404c-0.101,0.202-0.202,0.303-0.202,0.505c0.303,1.212,0,1.818-1.01,2.424c-1.111,0.606-2.121,1.01-2.929,2.02s-2.02,1.919-3.636,1.616c-0.202-0.101-0.505,0.101-0.808,0.202c-0.909,0.505-1.919,0.606-2.929,0.202c-0.303-0.101-0.606-0.404-0.909-0.606z M79.2062,92.617c0.303,1.01,0.606,1.818,0.909,2.626c0.202,0.505,0.505,0.707,1.111,0.505c1.313-0.303,2.626-0.505,3.939-0.909c1.818-0.707,3.838-0.909,5.757-1.212c0.707-0.202,1.111,0.101,1.515,0.707c0.303,0.606,0.808,1.111,1.313,1.818c-0.909,2.424-2.727,4.242-5.353,4.949c-1.414,0.404-2.828,0.707-4.141,0.808c-1.414,0.101-2.828-0.101-4.141-0.505c-3.232-0.808-5.757-2.626-7.474-5.656c-1.414-2.424-2.121-5.05-2.323-7.777c-0.202-2.323,0.202-4.747,1.313-6.868c1.313-2.626,2.727-5.151,4.242-7.676c2.02-3.838,8.282-2.121,10.403-1.414c1.717,0.505,3.131,1.414,4.545,2.323c0.303,0.202,0.505,0.606,0.707,0.909c0.505,0.707,0.909,1.616,1.616,2.121c0.909,0.707,1.212,1.616,0.909,2.525c-0.404,1.515,0.101,2.929,0.202,4.343c0,0.707-0.101,1.313-0.505,1.818c-0.909,1.212-1.717,2.525-2.828,3.535c-2.121,1.818-4.444,3.333-7.474,3.333c-1.313,0-2.626-0.101-4.242-0.303z M83.3472,81.709c-0.606,0.101-1.515,0.303-2.424,0.606c-1.515,0.707-2.323,2.727-1.818,4.242c0.202,0.606,0.505,1.212,1.212,1.313c1.212,0.101,2.525,0.404,3.636-0.404c1.313-1.01,2.727-1.919,4.04-3.03c1.111-1.01,0.606-2.121-0.808-2.424c-1.212-0.202-2.323-0.202-3.838-0.303z M113.2634,80.194c1.313-1.212,2.727-2.121,4.343-2.525c1.515-0.404,3.131-0.909,4.646,0.101c0.808,0.505,1.717,1.111,2.222,1.818c1.111,1.717,2.02,3.535,2.525,5.656c0.404,1.818-0.101,3.636-0.707,5.252c-0.404,1.515-0.909,3.03-1.919,4.242c-1.414,1.818-2.828,3.333-5.151,3.838c-1.414,0.303-2.626,0.808-4.04,0.707c-0.909-0.101-1.212,0.404-1.515,1.212c-1.111,2.828-3.03,3.434-5.555,3.131c-1.01-0.101-1.818-0.707-2.525-1.414c-1.111-1.313-1.616-2.828-1.818-4.444c0-3.434-3.232-38.481-3.333-39.996c0-0.606,0.404-1.515,0.909-2.02c1.414-1.515,2.929-2.929,4.545-4.242c0.707-0.606,1.616-1.111,2.424-1.313c1.212-0.404,2.222,0.202,3.131,0.909c0.808,0.606,1.313,1.414,1.111,2.525c-0.303,1.414-0.101,2.727,0.303,4.04c-0.303,4.646,0,17.877,0,20.402c-0.202,0.606-0.303,1.414,0.404,2.121z M113.7684,91.506c2.828-0.101,4.343-0.505,6.262-2.02c0.606-0.505,1.111-1.313,1.313-2.121c0.303-1.515-0.101-2.929-1.01-4.141c-1.01-1.414-1.919-1.515-3.131-0.303c-1.313,1.414-2.222,3.03-3.03,4.848c-0.606,1.212-0.606,2.424-0.404,3.737z M161.3596,98.374c-0.404,0.303-0.909,0.707-1.414,0.909c-0.303,0.202-0.808,0.202-1.01,0c-0.505-0.505-1.111-1.01-1.515-1.616c-0.606-0.808-1.111-1.616-1.717-2.626c-0.606,0.909-1.313,1.616-1.717,2.424c-0.606,1.01-1.313,1.616-2.323,2.222c-2.121,1.111-4.343,1.717-6.868,1.01c-1.01-0.303-2.02-0.303-3.03-0.606c-3.232-0.909-5.555-3.131-7.474-5.858c-1.01-1.414-1.414-3.03-0.303-4.747c0.505-0.707,0.505-1.717,0.808-2.626c0.808-2.626,2.121-5.151,3.737-7.272c2.02-2.626,4.646-4.444,7.979-4.949c1.313-0.202,2.727-0.101,4.04,0.303c1.414,0.404,2.727,1.212,4.04,1.818c0.303,0.101,0.505,0.101,0.707,0.202c0.404-0.606,0-1.01-0.101-1.414c-0.303-1.313,0.202-1.818,1.616-1.515c-0.303-1.111,0.707-1.414,1.313-1.919c0.505-0.303,1.313,0.202,1.313,0.909c0.101,1.212,0.707,1.818,1.919,2.222c0,0.303-0.101,0.606-0.101,0.909s0.202,0.505,0.303,0.808c-0.303,0.303-0.606,0.505-1.111,0.808c0.303,1.717,0.505,3.535,0.707,5.454c0.101,1.515,0.101,3.03,0.101,4.646l0,5.555c0,0.606-0.101,1.111,0,1.717c0,1.01,0.101,2.02,0.101,3.232z M149.1386,79.992c-1.515-0.606-2.727,0.303-3.939,0.303c-0.303,0.101-0.505,0.404-0.707,0.606c-1.515,1.414-2.525,3.131-3.434,4.848c-0.707,1.414-1.212,2.929-1.414,4.545c-0.101,1.01-0.202,1.919,0.404,2.727c1.414,1.818,4.343,2.323,5.858,0.808c0.606-0.606,1.313-1.111,1.818-1.818c1.717-2.121,3.838-3.737,5.959-5.353c1.313-1.01,1.717-1.919,1.515-3.434c-0.202-0.808-0.505-1.212-1.313-1.414c-0.909-0.202-1.919-0.404-2.525-1.313c-0.202-0.404-1.01-0.505-1.515-0.606c-0.202,0-0.505,0-0.707,0.101z M189.0538,101.202c-0.303,0.404-0.606,0.808-1.01,1.313c-0.101,0-0.404-0.202-0.606-0.202c-0.202,0.101-0.404,0.404-0.606,0.505c-0.303-0.606-0.505-1.313-0.808-2.121c-1.212,0.404-2.222,0.909-3.232,1.212c-0.808,0.303-1.616,0.606-2.525,0.707c-1.01,0.202-2.02,0.202-3.131,0.202c-0.505,0-1.212,0.101-1.515-0.202c-1.111-1.212-2.828-1.313-4.141-2.222c-1.414-0.909-2.121-2.222-2.626-3.636c-0.707-2.02-1.01-4.141-1.111-6.262c0-1.919,0.202-3.737,1.01-5.555c0.909-2.121,2.121-3.939,3.737-5.555c0.202-0.202,0.404-0.404,0.606-0.505c1.01-0.303,2.02-0.606,2.929-0.808c1.212-0.303,2.323-0.404,3.434-0.808c1.313-0.606,2.525-0.303,4.04,0.101l0-4.646c0.101-2.424,0.202-4.848,0.202-7.272l0-3.333c0.101-1.616,0.101-3.232,0.303-4.848c0.101-0.505,0.606-1.111,1.01-1.515c1.111-0.707,2.222-1.414,3.636-0.808c0.101,0,0.202,0.101,0.303,0.101c2.222,0,2.727,1.717,3.131,3.333c0.303,1.515,0.808,2.929,0.505,4.545c-0.101,0.707,0.303,1.616,0.404,2.424c0.404,2.222,0.909,4.444,1.212,6.666c0.202,1.919,0.101,3.939,0.202,5.858c0.202,2.323,0.505,4.747,0.808,7.07c0.202,2.02,0.505,3.939,0.404,5.858c-0.101,1.717,0.101,3.434,0.202,5.05c0.101,1.414,0,2.727,0,4.242c-0.404-0.303-0.707-0.404-0.909-0.505c-0.505,0.303-0.909,0.606-1.515,1.01l0,1.111c-1.111,0-2.02,0.101-3.03,0c-0.404,0-0.808-0.303-1.313-0.505z M177.8428,98.071c2.626-0.101,4.343-0.606,5.959-1.717c0.606-0.404,0.808-1.01,0.606-1.818c-0.101-0.505-0.101-1.212-0.202-1.818c-0.101-2.626,0.202-5.151-0.808-7.676c0-0.101-0.101-0.404,0-0.505c0.303-0.707,0.101-1.313-0.101-2.02c-0.404-1.515-0.909-1.919-2.323-1.515c-1.313,0.303-2.525,0.909-3.838,1.313s-2.121,1.414-2.727,2.525c-1.616,3.03-1.919,6.262-0.808,9.494c0.606,1.919,2.424,3.939,4.242,3.737z M213.516,99.788c-0.909,0.404-1.515,0.707-2.02,0.909c-0.707,0.202-1.414,0.404-2.02,0.303c-0.808-0.101-1.414,0-2.121,0.404c-0.808,0.606-1.313,0.404-1.717-0.505c-0.505-1.313-0.808-2.727-1.414-3.939c-1.616-3.131-0.808-6.666-1.717-9.898l0-0.202c0.808-2.121-0.404-4.242-0.202-6.363s0.101-4.242,0.202-6.363c0-1.717,0.101-3.434,1.212-4.848c1.212-0.404,2.222,0.101,3.333,0.606c2.828,1.515,3.636,4.141,4.04,6.969c0.202,0.909,0.404,1.818,0.707,3.131c0.606-0.505,1.01-0.909,1.414-1.212c1.616-1.313,2.828-3.03,4.747-4.04c1.717-1.01,3.636-1.414,5.656-1.515c0.101,0,0.303,0,0.404,0.101c2.222,1.414,5.05,2.121,5.757,5.252c0.101,0.606,0.505,1.313,0.808,2.121c1.01-0.808,1.919-1.414,2.828-2.02c2.02-1.515,4.141-2.323,6.666-2.525c1.919-0.303,3.434,0.404,5.05,1.01c0.909,0.404,1.515,1.616,2.222,2.424c0.303,0.303,0.505,0.606,0.808,0.909c0.202,0.303,0.505,0.606,0.505,1.01c0.505,2.424,1.01,4.848,1.313,7.272c0.202,1.919,0.909,3.737,0.303,5.757c-0.202,0.606,0,1.414,0.303,2.02c1.212,2.424,1.111,4.848,1.01,7.373c-0.808,0.202-0.909,0.202-3.131-0.404c-0.303,0.505-0.606,1.111-1.01,1.717c-1.313-0.707-2.626-2.02-4.242-0.606c-1.212-0.606-1.717-1.717-2.02-2.828c-0.505-1.919-0.808-3.838-1.111-5.757c-0.202-1.414-0.303-2.929-0.404-4.343c0-0.404-0.202-0.808-0.101-1.212c0.606-2.828,0.101-5.454-0.505-8.181c-0.202-0.606-0.202-1.313-0.202-2.121c-0.606,0-1.01,0-1.313,0.202c-2.929,1.212-5.353,3.03-6.262,6.363c-0.101,0.505-0.202,1.01-0.202,1.515c0,1.01,0.101,2.02,0.202,2.929c0.303,2.121,0.505,4.141,0.808,6.161c0,0.505,0,0.909,0.101,1.414c0.101,0.909-0.303,1.515-1.313,1.717c-0.404-0.303-0.909-0.606-1.414-0.909c-0.303,0.202-0.202,0.808-0.909,0.606c-1.414-0.101-2.727-0.101-4.04,1.01c-1.01,0.707-3.838-5.555-3.939-6.363c-1.111-4.545-0.808-9.797-0.404-14.544c0.101-1.515,0-1.818-0.909-2.828c-1.919,0.303-2.828,1.818-3.939,3.03c-0.808,0.909-1.717,1.818-2.323,2.929c-0.404,0.707-0.808,1.616-0.707,2.424c0.101,2.424,0.303,4.949,0.606,7.373c0.202,2.222,0.404,4.444,0.606,6.565z M262.1172,75.447c1.515,1.414,3.333,2.424,4.646,4.242c0.606,0.808,0.909,1.616,0.808,2.828c-0.303,4.545-0.404,9.09-0.707,13.736c-0.101,1.515-0.505,3.03-0.707,4.848c-1.515-1.111-2.929-0.303-3.838-0.404c-1.111-0.707-2.02-1.212-2.727-1.717c-0.909-0.707-1.515-1.717-1.515-2.929c0-2.121-0.101-4.242,0-6.262c0.101-2.626,0.202-5.353,0.303-7.979c0.101-1.414,0.303-2.929,0.505-4.343c0.101-1.111,1.111-2.222,2.121-2.323c0.404-0.101,0.909,0,1.111,0.303z M268.0762,66.66c0.202,0.606,0.202,1.313-0.303,1.717c-0.606,0.606-2.02,0.606-2.626,0.202c-1.01-0.808-2.02-1.616-3.131-2.424c-0.101-0.303,0-0.909-0.202-1.212c-1.111-1.414-0.606-2.626,0.606-3.636c1.515-0.202,2.525,0.404,3.333,1.515c0.606,0.707,1.212,1.212,1.616,1.919c0.404,0.505,0.606,1.212,0.707,1.919z M283.0444,101.101c-1.515-0.101-2.828-0.404-4.04-1.515c0.101-0.606,0.101-1.313-0.606-1.818c-0.202-0.101-0.202-0.505-0.202-0.707c-0.505-2.525-1.212-4.949-1.414-7.474c-0.303-3.535-1.414-6.868-1.616-10.302c-0.101-0.707-0.303-1.414-0.404-2.222c-0.101-0.505-0.101-1.212-0.202-1.818c1.515-0.202,2.828-0.404,4.141-0.404s2.424,1.313,2.626,2.626c0.202,1.515,0.707,2.929,0.404,4.444c0,0.202,0.202,0.303,0.303,0.505c0.202-0.101,0.303-0.101,0.404-0.202c1.111-2.02,2.121-4.141,3.232-6.262c0.202-0.404,0.404-1.01,0.606-1.414c0.707-1.212,1.919-1.919,3.03-2.525c0.101,0,0.202-0.101,0.303-0.101c1.414,0,2.828-0.101,4.141,0.202c1.414,0.202,2.222,1.414,3.03,2.424c0.303,0.404,0.707,0.808,1.01,1.313c0.101,0.202,0.303,0.404,0.404,0.707c0.404,1.818,0.808,3.737,1.111,5.555c0.101,0.404-0.202,0.808-0.404,1.212l0.909,0.303c0.202,0.808,0.202,1.616-0.202,2.424c-0.202,0.303-0.303,0.909-0.101,1.212c0.606,0.707,0.505,1.414,0.303,2.02c-0.808,2.222-0.404,4.343-0.404,6.666c0.202-0.303,0.404-0.505,0.505-0.808l0.202,0.202c-0.101,1.111-0.101,2.222-0.404,3.232c-0.202,0.707,0.101,1.01,0.404,1.313l-1.414,1.414l-0.606-0.606c-0.101,0.505-0.202,0.909-0.404,1.313l-1.919,0c0.404-0.303,0.606-0.404,0.909-0.606c-0.101-0.101-0.101-0.404-0.202-0.404c-2.121-1.01-2.727-2.929-3.232-4.949c-0.101-0.303-0.101-0.606,0-0.707c1.111-1.414,0.505-3.03,0.505-4.444c0-2.02-0.202-4.04-0.303-5.959c-0.101-0.707-0.202-1.515-0.505-2.121c-0.505-0.909-0.606-1.818-0.606-2.828c-0.101-1.313-0.202-2.525-1.01-3.636c-0.707,0.303-1.313,0.606-1.414,1.313c-0.101,0.505-0.303,0.909-0.808,0.909c-0.101,0-0.303,0.101-0.303,0.202c0.202,1.111-1.212,1.616-1.111,2.828c0,0.606-0.404,1.313-0.606,1.919c-0.404,1.414-0.707,2.929-1.111,4.343c-0.202,0.808-0.202,1.717-0.808,2.121c-0.202,1.616-0.404,3.131-0.505,4.747c-0.101,1.01-0.202,2.121-0.101,3.131c0,0.707-0.101,1.313-0.404,1.818s-0.808,1.01-1.111,1.414z M295.7704,90.799c0.404-0.707,0.404-0.707,0-1.414l0,1.414z"></path>
</defs>
<defs><path id="s1495528331768" fill="#1A3838" d="M20.654545454545,10.227272727273l-0.13295454545455,0s0.071590909090911-0.70568181818184,0.071590909090911-1.3397727272728l0-0.93068181818184l0.15340909090909,0l0,0.42954545454547c0,0.94090909090912,0.77727272727275,1.759090909091,2.1681818181819,1.759090909091c0.87954545454548,0,1.5647727272728-0.34772727272728,1.5647727272728-1.0943181818182c0-1.7795454545455-3.9272727272728-1.0431818181818-3.9272727272728-3.5897727272728c0-1.2068181818182,0.77727272727275-2.0659090909091,2.2295454545455-2.0659090909091c0.7568181818182,0,1.2170454545455,0.22500000000001,1.4829545454546,0.43977272727274c0.2659090909091-0.020454545454546,0.43977272727274-0.13295454545455,0.57272727272729-0.36818181818183l0.13295454545455,0s-0.20454545454546,0.99204545454548-0.20454545454546,1.4318181818182l0,0.65454545454547l-0.15340909090909,0l0-0.32727272727274c0-0.95113636363639-0.5318181818182-1.6772727272728-1.8409090909091-1.6772727272728c-0.97159090909093,0-1.5238636363637,0.40909090909092-1.5238636363637,1.0738636363637c0,1.7386363636364,3.9375000000001,0.95113636363639,3.9375000000001,3.6102272727274c0,1.1454545454546-0.72613636363638,2.0659090909091-2.2806818181819,2.0659090909091c-0.83863636363639,0-1.3806818181819-0.25568181818183-1.7181818181819-0.52159090909092c-0.24545454545455,0.030681818181819-0.42954545454547,0.18409090909091-0.5318181818182,0.45000000000001z M26.700295454546,10.227272727273l0-0.15340909090909l0.20454545454546,0c0.31704545454546,0,0.4909090909091-0.15340909090909,0.66477272727274-0.60340909090911l2.3113636363637-6.0238636363638l0.42954545454547,0l2.7102272727273,6.6272727272729l0.50113636363638,0l0,0.15340909090909l-2.8329545454546,0l0-0.15340909090909l0.71590909090911,0l-0.85909090909093-2.1068181818182l-2.2397727272728,0l-0.57272727272729,1.5034090909091c-0.14318181818182,0.36818181818183,0.081818181818184,0.60340909090911,0.55227272727274,0.60340909090911l0.30681818181819,0l0,0.15340909090909l-1.8920454545455,0z M28.367340909091,7.8136363636366l2.1170454545455,0l-1.0943181818182-2.659090909091z M34.934681818182,10.227272727273l0-0.15340909090909l0.85909090909093,0l0-6.4534090909093l-0.85909090909093,0l0-0.15340909090909l5.3284090909092,0s-0.21477272727273,0.80795454545457-0.29659090909092,1.9125000000001l-0.15340909090909,0l0-0.90000000000002c0-0.54204545454547-0.19431818181819-0.85909090909093-0.71590909090911-0.85909090909093l-1.7488636363637,0l0,3.1909090909092l1.5954545454546,0l0-0.90000000000002l0.15340909090909,0l0,2.0454545454546l-0.15340909090909,0l0-0.99204545454548l-1.5954545454546,0l0,3.109090909091l0.85909090909093,0l0,0.15340909090909l-3.2727272727274,0z M41.952022727273,10.227272727273l0-0.15340909090909l0.85909090909093,0l0-6.4534090909093l-0.85909090909093,0l0-0.15340909090909l5.3693181818183,0s-0.21477272727273,0.80795454545457-0.29659090909092,1.9125000000001l-0.15340909090909,0l0-0.90000000000002c0-0.54204545454547-0.19431818181819-0.85909090909093-0.71590909090911-0.85909090909093l-1.7897727272728,0l0,3.1909090909092l1.534090909091,0l0-0.90000000000002l0.15340909090909,0l0,2.0454545454546l-0.15340909090909,0l0-0.99204545454548l-1.534090909091,0l0,3.109090909091l1.8409090909091,0c0.6443181818182,0,0.83863636363639-0.74659090909093,0.98181818181821-1.871590909091l0.16363636363637,0s-0.15340909090909,0.93068181818184-0.15340909090909,2.0250000000001l-5.246590909091,0z M52.703750000001,10.227272727273l0-0.15340909090909l0.85909090909093,0l0-6.4534090909093l-0.85909090909093,0l0-0.15340909090909l5.3284090909092,0s-0.21477272727273,0.80795454545457-0.29659090909092,1.9125000000001l-0.15340909090909,0l0-0.90000000000002c0-0.54204545454547-0.19431818181819-0.85909090909093-0.71590909090911-0.85909090909093l-1.7488636363637,0l0,3.1909090909092l1.5954545454546,0l0-0.90000000000002l0.15340909090909,0l0,2.0454545454546l-0.15340909090909,0l0-0.99204545454548l-1.5954545454546,0l0,3.109090909091l0.85909090909093,0l0,0.15340909090909l-3.2727272727274,0z M59.260863636365,10.227272727273l0-0.15340909090909l0.20454545454546,0c0.31704545454546,0,0.4909090909091-0.15340909090909,0.66477272727274-0.60340909090911l2.3113636363637-6.0238636363638l0.42954545454547,0l2.7102272727273,6.6272727272729l0.50113636363638,0l0,0.15340909090909l-2.8329545454546,0l0-0.15340909090909l0.71590909090911,0l-0.85909090909093-2.1068181818182l-2.2397727272728,0l-0.57272727272729,1.5034090909091c-0.14318181818182,0.36818181818183,0.081818181818184,0.60340909090911,0.55227272727274,0.60340909090911l0.30681818181819,0l0,0.15340909090909l-1.8920454545455,0z M60.92790909091,7.8136363636366l2.1170454545455,0l-1.0943181818182-2.659090909091z M67.894113636365,10.227272727273l-0.13295454545455,0s0.071590909090911-0.70568181818184,0.071590909090911-1.3397727272728l0-0.93068181818184l0.15340909090909,0l0,0.42954545454547c0,0.94090909090912,0.77727272727275,1.759090909091,2.1681818181819,1.759090909091c0.87954545454548,0,1.5647727272728-0.34772727272728,1.5647727272728-1.0943181818182c0-1.7795454545455-3.9272727272728-1.0431818181818-3.9272727272728-3.5897727272728c0-1.2068181818182,0.77727272727275-2.0659090909091,2.2295454545455-2.0659090909091c0.7568181818182,0,1.2170454545455,0.22500000000001,1.4829545454546,0.43977272727274c0.2659090909091-0.020454545454546,0.43977272727274-0.13295454545455,0.57272727272729-0.36818181818183l0.13295454545455,0s-0.20454545454546,0.99204545454548-0.20454545454546,1.4318181818182l0,0.65454545454547l-0.15340909090909,0l0-0.32727272727274c0-0.95113636363639-0.5318181818182-1.6772727272728-1.8409090909091-1.6772727272728c-0.97159090909093,0-1.5238636363637,0.40909090909092-1.5238636363637,1.0738636363637c0,1.7386363636364,3.9375000000001,0.95113636363639,3.9375000000001,3.6102272727274c0,1.1454545454546-0.72613636363638,2.0659090909091-2.2806818181819,2.0659090909091c-0.83863636363639,0-1.3806818181819-0.25568181818183-1.7181818181819-0.52159090909092c-0.24545454545455,0.030681818181819-0.42954545454547,0.18409090909091-0.5318181818182,0.45000000000001z M75.668272727274,10.227272727273l0-0.15340909090909l0.85909090909093,0l0-6.4534090909093l-1.0431818181818,0c-0.57272727272729,0-0.88977272727275,0.35795454545455-0.97159090909093,1.1045454545455l-0.071590909090911,0.65454545454547l-0.15340909090909,0s0.061363636363638-0.92045454545457,0.061363636363638-1.2681818181819l0-0.6443181818182l5.9113636363638,0l0,0.6443181818182c0,0.34772727272728,0.040909090909092,1.2681818181819,0.040909090909092,1.2681818181819l-0.15340909090909,0l-0.061363636363638-0.68522727272729c-0.061363636363638-0.6443181818182-0.30681818181819-1.0738636363637-0.9102272727273-1.0738636363637l-1.0943181818182,0l0,6.4534090909093l0.85909090909093,0l0,0.15340909090909l-3.2727272727274,0z M85.448409090911,10.227272727273l0-0.15340909090909l0.85909090909093,0l0-6.4534090909093l-0.85909090909093,0l0-0.15340909090909l5.3693181818183,0s-0.21477272727273,0.80795454545457-0.29659090909092,1.9125000000001l-0.15340909090909,0l0-0.90000000000002c0-0.54204545454547-0.19431818181819-0.85909090909093-0.71590909090911-0.85909090909093l-1.7897727272728,0l0,3.1909090909092l1.534090909091,0l0-0.90000000000002l0.15340909090909,0l0,2.0454545454546l-0.15340909090909,0l0-0.99204545454548l-1.534090909091,0l0,3.109090909091l1.8409090909091,0c0.6443181818182,0,0.83863636363639-0.74659090909093,0.98181818181821-1.871590909091l0.16363636363637,0s-0.15340909090909,0.93068181818184-0.15340909090909,2.0250000000001l-5.246590909091,0z M92.752113636366,10.227272727273l0-0.15340909090909l0.85909090909093,0l0-6.4534090909093l-0.85909090909093,0l0-0.15340909090909l5.3284090909092,0s-0.21477272727273,0.80795454545457-0.29659090909092,1.9125000000001l-0.15340909090909,0l0-0.90000000000002c0-0.54204545454547-0.19431818181819-0.85909090909093-0.71590909090911-0.85909090909093l-1.7488636363637,0l0,3.1909090909092l1.5954545454546,0l0-0.90000000000002l0.15340909090909,0l0,2.0454545454546l-0.15340909090909,0l0-0.99204545454548l-1.5954545454546,0l0,3.109090909091l0.85909090909093,0l0,0.15340909090909l-3.2727272727274,0z M99.769454545457,10.227272727273l0-0.15340909090909l0.85909090909093,0l0-6.4534090909093l-0.85909090909093,0l0-0.15340909090909l5.3284090909092,0s-0.21477272727273,0.80795454545457-0.29659090909092,1.9125000000001l-0.15340909090909,0l0-0.90000000000002c0-0.54204545454547-0.19431818181819-0.85909090909093-0.71590909090911-0.85909090909093l-1.7488636363637,0l0,3.1909090909092l1.5954545454546,0l0-0.90000000000002l0.15340909090909,0l0,2.0454545454546l-0.15340909090909,0l0-0.99204545454548l-1.5954545454546,0l0,3.109090909091l0.85909090909093,0l0,0.15340909090909l-3.2727272727274,0z M106.78679545455,10.227272727273l0-0.15340909090909l0.85909090909093,0l0-6.4534090909093l-0.85909090909093,0l0-0.15340909090909l3.2727272727274,0l0,0.15340909090909l-0.85909090909093,0l0,6.4534090909093l0.85909090909093,0l0,0.15340909090909l-3.2727272727274,0z M117.38368181818,8.2125000000002l0.16363636363637,0c0,0.7568181818182-0.51136363636365,2.0863636363637-2.2397727272728,2.0863636363637c-2.0761363636364,0-3.3136363636365-1.3806818181819-3.3136363636365-3.4875000000001c0-2.0250000000001,1.2988636363637-3.4159090909092,3.3954545454546-3.4159090909092c0.63409090909093,0,1.1045454545455,0.19431818181819,1.4318181818182,0.46022727272728c0.35795454545455,0.051136363636365,0.59318181818183-0.14318181818182,0.67500000000002-0.38863636363637l0.13295454545455,0s-0.19431818181819,0.95113636363639-0.19431818181819,1.4318181818182l0,0.67500000000002l-0.15340909090909,0l0-0.38863636363637c0-0.98181818181821-0.79772727272729-1.6363636363637-1.8920454545455-1.6363636363637c-1.4829545454546,0-1.7488636363637,1.6772727272728-1.7488636363637,3.3136363636365c0,1.7795454545455,0.30681818181819,3.2727272727274,1.7181818181819,3.2727272727274c0.45000000000001,0,0.85909090909093-0.1125,1.1761363636364-0.31704545454546c0.56250000000001-0.36818181818183,0.84886363636366-1.0125,0.84886363636366-1.6056818181819z M119.42034090909,10.227272727273l0-0.15340909090909l0.85909090909093,0l0-6.4534090909093l-0.85909090909093,0l0-0.15340909090909l3.2727272727274,0l0,0.15340909090909l-0.85909090909093,0l0,6.4534090909093l0.85909090909093,0l0,0.15340909090909l-3.2727272727274,0z M124.4945,10.227272727273l0-0.15340909090909l0.85909090909093,0l0-6.4534090909093l-0.85909090909093,0l0-0.15340909090909l5.3693181818183,0s-0.21477272727273,0.80795454545457-0.29659090909092,1.9125000000001l-0.15340909090909,0l0-0.90000000000002c0-0.54204545454547-0.19431818181819-0.85909090909093-0.71590909090911-0.85909090909093l-1.7897727272728,0l0,3.1909090909092l1.534090909091,0l0-0.90000000000002l0.15340909090909,0l0,2.0454545454546l-0.15340909090909,0l0-0.99204545454548l-1.534090909091,0l0,3.109090909091l1.8409090909091,0c0.6443181818182,0,0.83863636363639-0.74659090909093,0.98181818181821-1.871590909091l0.16363636363637,0s-0.15340909090909,0.93068181818184-0.15340909090909,2.0250000000001l-5.246590909091,0z M131.81865909091,10.227272727273l0-0.15340909090909l0.30681818181819,0c0.45000000000001,0,0.61363636363638-0.22500000000001,0.61363636363638-0.61363636363638l0-5.2261363636365l-0.10227272727273-0.14318181818182c-0.20454545454546-0.27613636363637-0.39886363636365-0.47045454545456-0.73636363636366-0.47045454545456l-0.18409090909091,0l0-0.15340909090909l2.321590909091,0l3.4977272727274,4.6329545454547l0-3.8659090909092c0-0.38863636363637-0.16363636363637-0.61363636363638-0.61363636363638-0.61363636363638l-0.30681818181819,0l0-0.15340909090909l1.9943181818182,0l0,0.15340909090909l-0.31704545454546,0c-0.45000000000001,0-0.60340909090911,0.22500000000001-0.60340909090911,0.61363636363638l0,6.0136363636365l-0.42954545454547,0l-4.3670454545456-5.8090909090911l0,5.021590909091c0,0.38863636363637,0.15340909090909,0.61363636363638,0.60340909090911,0.61363636363638l0.31704545454546,0l0,0.15340909090909l-1.9943181818182,0z M141.58713636364,10.227272727273l0-0.15340909090909l0.85909090909093,0l0-6.4534090909093l-1.0431818181818,0c-0.57272727272729,0-0.88977272727275,0.35795454545455-0.97159090909093,1.1045454545455l-0.071590909090911,0.65454545454547l-0.15340909090909,0s0.061363636363638-0.92045454545457,0.061363636363638-1.2681818181819l0-0.6443181818182l5.9113636363638,0l0,0.6443181818182c0,0.34772727272728,0.040909090909092,1.2681818181819,0.040909090909092,1.2681818181819l-0.15340909090909,0l-0.061363636363638-0.68522727272729c-0.061363636363638-0.6443181818182-0.30681818181819-1.0738636363637-0.9102272727273-1.0738636363637l-1.0943181818182,0l0,6.4534090909093l0.85909090909093,0l0,0.15340909090909l-3.2727272727274,0z"></path>
</defs>
<defs><path id="a1495528331768" d="M47.9,21.2v-9.4l-2.9,2.9c-0.8,0.8-2.2,0.8-3,0c-0.8-0.8-0.8-2.2,0-3l6.6-6.6c0.8-0.8,2.2-0.8,3,0l6.6,6.6  c0.8,0.8,0.8,2.2,0,3c-0.4,0.4-1,0.6-1.5,0.6s-1.1-0.2-1.5-0.6l-2.9-2.9v9.4c0,1.2-1,2.1-2.1,2.1C48.8,23.3,47.9,22.3,47.9,21.2z   M58.7,71c-2.8,1.2-5.7,1.7-8.7,1.7c-9.2,0-17.5-5.5-21-14.1c-2.3-5.6-2.3-11.8,0-17.4c2.3-5.6,6.7-10,12.3-12.3  c2.8-1.2,5.7-1.7,8.7-1.7c9.2,0,17.5,5.5,21,14.1c2.3,5.6,2.3,11.8,0,17.4C68.7,64.3,64.3,68.7,58.7,71z M36.9,55.8  c-0.4-2-0.6-4-0.6-5.8c0-1.9,0.2-3.8,0.5-5.7h-4.3c-1.2,3.8-1.2,7.8,0,11.5H36.9z M41.2,55.8h6.7V44.2h-6.8  c-0.4,1.8-0.6,3.8-0.6,5.7C40.5,51.8,40.8,53.8,41.2,55.8z M63.5,44.2c0.3,1.9,0.5,3.8,0.5,5.7c0,1.8-0.2,3.8-0.6,5.8h4.2  c1.2-3.8,1.2-7.8,0-11.5H63.5z M59.2,44.2h-7v11.5H59c0.4-1.9,0.7-3.9,0.7-5.8C59.7,48,59.5,46.1,59.2,44.2z M52.1,67.7  c2.1-1.2,4.1-4.1,5.6-7.7h-5.6V67.7z M58,40c-1.4-3.8-3.5-6.8-5.9-7.9V40H58z M42.2,40h5.6v-7.8C45.6,33.4,43.6,36.3,42.2,40z   M42.5,60c0.4,0.9,0.7,1.8,1.2,2.6c1.3,2.4,2.7,4.1,4.2,5.1V60H42.5z M65.6,60h-3.3c-0.7,2.1-1.6,4.1-2.6,5.8  C62,64.4,64,62.4,65.6,60z M60.1,34.5c0.9,1.7,1.7,3.5,2.3,5.5h3.1C64.1,37.8,62.3,35.9,60.1,34.5z M34.4,40h3.3  c0.6-2.1,1.5-4,2.5-5.7C37.9,35.7,35.9,37.7,34.4,40z M40.8,66c-1.1-1.8-2-3.9-2.8-6h-3.5C36.1,62.5,38.2,64.6,40.8,66z M51.5,94.8  l6.6-6.6c0.8-0.8,0.8-2.2,0-3c-0.8-0.8-2.2-0.8-3,0l-2.9,2.9v-9.4c0-1.2-1-2.1-2.1-2.1c-1.2,0-2.1,1-2.1,2.1v9.4l-2.9-2.9  c-0.8-0.8-2.2-0.8-3,0c-0.8,0.8-0.8,2.2,0,3l6.6,6.6c0.4,0.4,1,0.6,1.5,0.6C50.5,95.5,51.1,95.3,51.5,94.8z M11.8,52.1h9.4  c1.2,0,2.1-1,2.1-2.1s-1-2.1-2.1-2.1h-9.4l2.9-2.9c0.8-0.8,0.8-2.2,0-3c-0.8-0.8-2.2-0.8-3,0l-6.6,6.6c-0.8,0.8-0.8,2.2,0,3l6.6,6.6  c0.4,0.4,1,0.6,1.5,0.6s1.1-0.2,1.5-0.6c0.8-0.8,0.8-2.2,0-3L11.8,52.1z M85.3,58.1c0.4,0.4,1,0.6,1.5,0.6s1.1-0.2,1.5-0.6l6.6-6.6  c0.8-0.8,0.8-2.2,0-3l-6.6-6.6c-0.8-0.8-2.2-0.8-3,0c-0.8,0.8-0.8,2.2,0,3l2.9,2.9h-9.4c-1.2,0-2.1,1-2.1,2.1s1,2.1,2.1,2.1h9.4  l-2.9,2.9C84.5,55.9,84.5,57.2,85.3,58.1z M19.4,30.8c1.2,0,2.1-1,2.1-2.1v-4.2l6.6,6.6c0.4,0.4,1,0.6,1.5,0.6  c0.5,0,1.1-0.2,1.5-0.6c0.8-0.8,0.8-2.2,0-3l-6.6-6.6h4.2c1.2,0,2.1-1,2.1-2.1s-1-2.1-2.1-2.1h-9.3c-1.2,0-2.1,1-2.1,2.1v9.3  C17.2,29.8,18.2,30.8,19.4,30.8z M69.2,80.6c0,1.2,1,2.1,2.1,2.1h9.3c1.2,0,2.1-1,2.1-2.1v-9.3c0-1.2-1-2.1-2.1-2.1  c-1.2,0-2.1,1-2.1,2.1v4.2l-6.6-6.6c-0.8-0.8-2.2-0.8-3,0c-0.8,0.8-0.8,2.2,0,3l6.6,6.6h-4.2C70.2,78.5,69.2,79.5,69.2,80.6z   M30.8,80.6c0-1.2-1-2.1-2.1-2.1h-4.2l6.6-6.6c0.8-0.8,0.8-2.2,0-3c-0.8-0.8-2.2-0.8-3,0l-6.6,6.6v-4.2c0-1.2-1-2.1-2.1-2.1  s-2.1,1-2.1,2.1v9.3c0,1.2,1,2.1,2.1,2.1h9.3C29.8,82.8,30.8,81.8,30.8,80.6z M80.6,30.8c1.2,0,2.1-1,2.1-2.1v-9.3  c0-1.2-1-2.1-2.1-2.1h-9.3c-1.2,0-2.1,1-2.1,2.1s1,2.1,2.1,2.1h4.2l-6.6,6.6c-0.8,0.8-0.8,2.2,0,3c0.4,0.4,1,0.6,1.5,0.6  c0.5,0,1.1-0.2,1.5-0.6l6.6-6.6v4.2C78.5,29.8,79.5,30.8,80.6,30.8z"></path></defs>
	<use id="SvgjsUse1008" width="335.7896px" height="151px" xlink:href="#t1495528331768" fill="#1a3838" x="19.64029884338379" y="97.44779586791992"></use>
	<use id="SvgjsUse1009" width="227.66356818182px" height="60.227272727273px" xlink:href="#s1495528331768" fill="#1a3838" y="209.294353723526" x="96.62915802001953"></use>
	<use id="SvgjsUse1010" enable-background="new 0 0 100 100" width="83px" height="83px" xlink:href="#a1495528331768" fill="#1a3838" stroke="#1a3838" x="138.5" y="57.975780963897705"></use>
</svg>