<svg 
	id="SvgjsSvg2314" 
	width="360" 
	height="275"
	viewBox="0 0 360 275"
	xmlns="http://www.w3.org/2000/svg" 
	version="1.1" 
	xmlns:xlink="http://www.w3.org/1999/xlink">
	<defs><!--?xml version="1.0"?-->
		<svg width="781.000292px" height="241.124px" id="t1495532397945"><path fill="#1A212C" d="M28.36188,41.39816c-3.46127,0-6.81973-2.22755-6.81973-7.74502l0-10.34954l2.81014,0l0,10.281c0,3.73543,1.95339,5.34612,4.59218,5.34612c3.18711,0,5.38039-2.94722,5.8259-5.10623l0-10.52089l2.81014,0l0,17.8204l-2.81014,0l0-4.14667c-0.3427,1.23372-2.50171,4.42083-6.40849,4.42083z M52.2771995,23.02944c3.46127,0,6.81973,2.22755,6.81973,7.74502l0,10.34954l-2.81014,0l0-10.281c0-3.73543-1.95339-5.34612-4.59218-5.34612c-3.18711,0-5.38039,2.94722-5.8259,5.10623l0,10.52089l-2.81014,0l0-17.8204l2.81014,0l0,4.14667c0.3427-1.23372,2.50171-4.42083,6.40849-4.42083z M66.973889,16.89511l0,2.50171l-2.81014,0l0-2.50171l2.81014,0z M66.973889,23.3036l0,17.8204l-2.81014,0l0-17.8204l2.81014,0z M78.7576285,18.91704c-1.88485,0-2.81014,0.92529-2.81014,3.11857l0,1.26799l5.03769,0l0,2.36463l-5.03769,0l0,15.45577l-2.81014,0l0-15.45577l-1.95339,0l0-2.36463l1.95339,0l0-1.26799c0-4.69499,3.11857-5.4832,5.38039-5.4832c1.47361,0,2.84441,0.41124,3.87251,1.06237l-1.0281,1.95339c-0.78821-0.37697-1.57642-0.65113-2.60452-0.65113z M89.581808,16.89511l0,2.50171l-2.81014,0l0-2.50171l2.81014,0z M89.581808,23.3036l0,17.8204l-2.81014,0l0-17.8204l2.81014,0z M103.4217475,22.99517c4.04386,0,9.45852,3.0843,8.73885,10.24673l-15.04453,0c0.44551,3.90678,3.49554,5.8259,6.71692,5.8259c2.46744,0,4.04386-0.6854,5.38039-1.98766l1.64496,1.50788c-1.61069,1.91912-3.94105,2.87868-7.05962,2.87868c-4.59218,0-9.49279-3.0843-9.49279-9.21863c0-6.1686,5.07196-9.2529,9.11582-9.2529z M103.4217475,25.42834c-2.63879,0-5.79163,1.88485-6.30568,5.72309l12.57709,0c-0.3427-3.83824-3.59835-5.72309-6.27141-5.72309z M131.552277,16.89511l2.81014,0l0,10.58943l0,13.63946l-2.81014,0l0-3.427c-0.82248,2.0562-3.25565,3.7697-6.40849,3.7697c-4.04386,0-8.94447-3.05003-8.94447-9.2529c0-6.13433,4.90061-9.21863,8.94447-9.21863c3.15284,0,5.58601,1.74777,6.40849,3.66689l0-9.76695z M125.452217,38.96499c3.05003,0,6.23714-2.15901,6.23714-6.75119c0-4.55791-3.18711-6.71692-6.23714-6.71692c-3.01576,0-6.5113,2.22755-6.5113,6.71692c0,4.52364,3.49554,6.75119,6.5113,6.75119z M160.911386,22.99517c4.04386,0,8.94447,3.0843,8.94447,9.21863c0,6.20287-4.90061,9.2529-8.94447,9.2529c-3.15284,0-5.58601-1.7135-6.40849-3.7697l0,9.9383l-2.81014,0l0-11.17202l0-13.15968l2.81014,0l0,3.35846c0.82248-1.91912,3.25565-3.66689,6.40849-3.66689z M160.602956,38.96499c3.01576,0,6.5113-2.22755,6.5113-6.75119c0-4.48937-3.49554-6.71692-6.5113-6.71692c-3.05003,0-6.23714,2.15901-6.23714,6.71692c0,4.59218,3.18711,6.75119,6.23714,6.75119z M177.3901155,16.89511l0,24.22889l-2.81014,0l0-24.22889l2.81014,0z M191.058705,22.99517c3.15284,0,5.58601,1.74777,6.40849,3.66689l0-3.35846l2.81014,0l0,17.8204l-2.81014,0l0-3.427c-0.82248,2.0562-3.25565,3.7697-6.40849,3.7697c-4.04386,0-8.94447-3.05003-8.94447-9.2529c0-6.13433,4.90061-9.21863,8.94447-9.21863z M191.367135,25.49688c-3.01576,0-6.5113,2.22755-6.5113,6.71692c0,4.52364,3.49554,6.75119,6.5113,6.75119c3.05003,0,6.23714-2.15901,6.23714-6.75119c0-4.55791-3.18711-6.71692-6.23714-6.71692z M213.8431145,25.66823l-3.7697,0l0,11.48045c0,1.06237,0.41124,1.7135,1.43934,1.7135c0.89102,0,1.54215-0.20562,2.29609-0.54832l0,2.3989c-0.75394,0.37697-1.64496,0.61686-3.05003,0.61686c-1.81631,0-3.46127-0.82248-3.46127-3.94105l0-11.72034l-2.46744,0l0-2.36463l2.46744,0l0-4.18094l2.77587,0l0,4.18094l3.7697,0l0,2.36463z M224.872914,18.91704c-1.88485,0-2.81014,0.92529-2.81014,3.11857l0,1.26799l5.03769,0l0,2.36463l-5.03769,0l0,15.45577l-2.81014,0l0-15.45577l-1.95339,0l0-2.36463l1.95339,0l0-1.26799c0-4.69499,3.11857-5.4832,5.38039-5.4832c1.47361,0,2.84441,0.41124,3.87251,1.06237l-1.0281,1.95339c-0.78821-0.37697-1.57642-0.65113-2.60452-0.65113z M241.2488335,22.99517c4.04386,0,9.15009,3.0843,9.15009,9.2529s-5.10623,9.21863-9.15009,9.21863s-9.11582-3.05003-9.11582-9.21863s5.07196-9.2529,9.11582-9.2529z M241.2488335,25.49688c-2.87868,0-6.37422,2.22755-6.37422,6.75119c0,4.48937,3.49554,6.71692,6.37422,6.71692c2.91295,0,6.40849-2.22755,6.40849-6.71692c0-4.52364-3.49554-6.75119-6.40849-6.75119z M264.547293,23.02944c0.30843,0,0.58259,0,0.85675,0.06854l0,2.63879c-0.27416-0.06854-0.58259-0.06854-0.82248-0.06854c-3.39273,0-6.1686,2.43317-6.64838,6.44276l0,9.01301l-2.81014,0l0-17.8204l2.81014,0l0,4.69499c0.65113-2.63879,3.0843-4.96915,6.61411-4.96915z M291.2727525,23.02944c3.22138,0,6.61411,2.02193,6.61411,7.71075l0,10.38381l-2.77587,0l0-10.45235c0-3.49554-1.85058-5.17477-4.52364-5.17477c-3.01576,0-4.7978,2.50171-5.27758,5.03769l0,10.58943l-2.77587,0l0-10.45235c0-3.49554-2.15901-5.17477-4.55791-5.17477c-3.18711,0-4.83207,2.70733-5.20904,5.03769l0,10.58943l-2.81014,0l0-17.8204l2.81014,0l0,4.18094c0.17135-1.26799,1.91912-4.4551,5.75736-4.4551c2.36463,0,5.17477,1.33653,6.27141,4.48937c0.61686-1.85058,2.77587-4.48937,6.47703-4.48937z"></path></svg>
	</defs>
	<defs><!--?xml version="1.0"?-->
<svg width="107.49113636364px" height="21.590909090909px" id="s1495532397945">
	<path fill="#1A212C" d="M3.0252272727272,8.0440909090908c-2.0863636363636-0.88090909090908-2.3181818181818-1.6806818181818-2.3181818181818-2.4920454545454c0-0.89249999999999,0.85772727272727-1.9704545454545,2.4456818181818-1.9704545454545c1.6111363636364,0,2.3761363636363,0.76499999999999,2.3761363636363,1.5531818181818c0,0.71863636363636-0.45204545454545,0.9040909090909-0.76499999999999,0.9040909090909c0-1.4372727272727-0.6490909090909-1.9240909090909-1.6111363636364-1.9240909090909c-0.89249999999999,0-1.5995454545454,0.61431818181818-1.5995454545454,1.3909090909091c0,2.0052272727273,4.2422727272727,1.6922727272727,4.2422727272727,4.2075c0,1.0663636363636-1.0315909090909,2.0631818181818-2.7934090909091,2.0631818181818c-1.7965909090909,0-2.5847727272727-0.95045454545454-2.5847727272727-1.5995454545454c0-0.73022727272727,0.62590909090909-0.83454545454545,0.62590909090909-0.83454545454545s0.16227272727273,1.8429545454545,2.0863636363636,1.8429545454545c1.5531818181818,0,1.8197727272727-1.0084090909091,1.8197727272727-1.3793181818182c0-0.39409090909091-0.046363636363636-0.97363636363636-1.9240909090909-1.7618181818182z M11.822727272727,11.289545454545l0.17386363636363,0l0,0.30136363636363l-0.59113636363636,0c-0.92727272727272,0-0.95045454545454-0.63749999999999-0.95045454545454-0.96204545454545l0-1.7734090909091l-0.75340909090908,0c-1.4256818181818,0-2.2370454545454,0.32454545454545-2.2370454545454,1.2634090909091c0,0.75340909090908,0.59113636363636,1.0779545454545,1.0895454545454,1.0779545454545c0.7765909090909,0,1.1011363636364-0.5215909090909,1.1011363636364-0.5215909090909c0.046363636363636,0,0.24340909090909,0.15068181818182,0.24340909090909,0.32454545454545c0,0.24340909090909-0.11590909090909,0.67227272727272-1.3793181818182,0.67227272727272c-0.71863636363636,0-1.8661363636363-0.39409090909091-1.8661363636363-1.5647727272727c0-1.4256818181818,1.3677272727273-1.7502272727273,3.06-1.7502272727273l0.74181818181818,0l0-0.54477272727272c0-0.5215909090909-0.023181818181818-1.4836363636364-1.3097727272727-1.4836363636364c-1.1359090909091,0-1.4604545454545,0.7765909090909-1.4604545454545,1.3329545454545c0,0-0.56795454545454-0.011590909090909-0.56795454545454-0.61431818181818c0-0.70704545454545,0.86931818181817-1.2170454545454,2.0284090909091-1.2170454545454c1.275,0,2.0863636363636,0.48681818181818,2.0863636363636,1.9820454545454l0,2.6079545454545c0,0.54477272727272,0.15068181818182,0.86931818181817,0.59113636363636,0.86931818181817z M15.3,3.2338636363636c0.74181818181818,0,1.4604545454545,0.22022727272727,1.4604545454545,0.89249999999999c0,0.59113636363636-0.3825,0.59113636363636-0.54477272727272,0.59113636363636c0-0.32454545454545-0.057954545454545-0.99681818181817-0.91568181818181-0.99681818181817c-0.76499999999999,0-1.0895454545454,0.63749999999999-1.0895454545454,1.6922727272727l0,0.70704545454545l1.4488636363636,0c0.30136363636363,0,0.5215909090909,0.092727272727272,0.5215909090909,0.37090909090909c0,0.37090909090909-0.40568181818181,0.56795454545454-0.40568181818181,0.56795454545454c0-0.33613636363636-0.42886363636363-0.47522727272727-1.1475-0.47522727272727l-0.41727272727272,0l0,4.0336363636363c0,0.33613636363636,0.15068181818182,0.67227272727272,0.67227272727272,0.67227272727272l0.24340909090909,0l0,0.30136363636363l-2.5847727272727,0l0-0.30136363636363l0.27818181818182,0c0.51,0,0.62590909090909-0.37090909090909,0.62590909090909-0.67227272727272l0-4.0336363636363l-0.9040909090909,0l0-0.46363636363636l0.22022727272727,0c0.68386363636363,0,0.68386363636363-0.59113636363636,0.68386363636363-0.59113636363636c0-1.9704545454545,1.1127272727273-2.295,1.8545454545454-2.295z M21.443181818182,9.0524999999999c-1.8081818181818,0-2.0631818181818,0-2.4340909090909,0.23181818181818c-0.092727272727272-0.092727272727272-0.13909090909091-0.32454545454545-0.13909090909091-0.39409090909091c0-0.35931818181818,0.53318181818181-0.35931818181818,1.02-0.35931818181818l1.4140909090909,0c0.24340909090909,0,0.35931818181818-0.069545454545454,0.35931818181818-0.31295454545454c0-0.97363636363636-0.51-1.8777272727273-1.6459090909091-1.8777272727273c-1.3561363636364,0-1.9820454545454,1.275-1.9820454545454,2.55c0,1.1590909090909,0.74181818181818,2.3297727272727,1.9009090909091,2.3297727272727c1.1359090909091,0,1.5763636363636-0.62590909090909,1.8197727272727-1.02c0.18545454545454,0.069545454545454,0.35931818181818,0.30136363636363,0.35931818181818,0.44045454545454c0,0.51-0.66068181818181,1.0895454545454-2.1790909090909,1.0895454545454c-1.9125,0-2.7006818181818-1.5415909090909-2.7006818181818-2.8397727272727c0-1.7154545454545,0.95045454545454-3.06,2.8165909090909-3.06c1.3793181818182,0,2.3761363636363,0.97363636363636,2.3761363636363,2.3761363636363c0,0.84613636363636-0.28977272727272,0.84613636363636-0.98522727272726,0.84613636363636z  M28.896136363636,4.7406818181818l0,2.5036363636363l2.2138636363636,0c0.32454545454545,0,0.69545454545454,0.11590909090909,0.69545454545454,0.44045454545454c0,0.33613636363636-0.3825,0.81136363636363-0.69545454545454,0.81136363636363c0-0.31295454545454-0.37090909090909-0.66068181818181-0.83454545454545-0.66068181818181l-1.3793181818182,0l0,2.7702272727273c0,0.27818181818182,0.22022727272727,0.63749999999999,0.78818181818181,0.63749999999999l0.37090909090909,0l0,0.34772727272727l-2.9325,0l0-0.34772727272727l0.32454545454545,0c0.42886363636363,0,0.60272727272727-0.30136363636363,0.60272727272727-0.51l0-6.108409090909c0-0.20863636363636-0.081136363636363-0.54477272727272-0.55636363636363-0.54477272727272l-0.35931818181818,0l0-0.33613636363636l1.6459090909091,0c0.56795454545454,0,2.0747727272727-0.1275,2.6659090909091-0.1275c1.275,0,1.5763636363636,0.35931818181818,1.5879545454545,1.1590909090909c0,0.42886363636363-0.22022727272727,0.9040909090909-0.69545454545454,0.9040909090909c0-1.0431818181818-0.37090909090909-1.5184090909091-1.6806818181818-1.5184090909091c-0.75340909090908,0-1.7618181818182,0.081136363636363-1.7618181818182,0.57954545454545z M38.412272727272,11.289545454545l0.17386363636363,0l0,0.30136363636363l-0.59113636363636,0c-0.92727272727272,0-0.95045454545454-0.63749999999999-0.95045454545454-0.96204545454545l0-1.7734090909091l-0.75340909090908,0c-1.4256818181818,0-2.2370454545454,0.32454545454545-2.2370454545454,1.2634090909091c0,0.75340909090908,0.59113636363636,1.0779545454545,1.0895454545454,1.0779545454545c0.7765909090909,0,1.1011363636364-0.5215909090909,1.1011363636364-0.5215909090909c0.046363636363636,0,0.24340909090909,0.15068181818182,0.24340909090909,0.32454545454545c0,0.24340909090909-0.11590909090909,0.67227272727272-1.3793181818182,0.67227272727272c-0.71863636363636,0-1.8661363636363-0.39409090909091-1.8661363636363-1.5647727272727c0-1.4256818181818,1.3677272727273-1.7502272727273,3.06-1.7502272727273l0.74181818181818,0l0-0.54477272727272c0-0.5215909090909-0.023181818181818-1.4836363636364-1.3097727272727-1.4836363636364c-1.1359090909091,0-1.4604545454545,0.7765909090909-1.4604545454545,1.3329545454545c0,0-0.56795454545454-0.011590909090909-0.56795454545454-0.61431818181818c0-0.70704545454545,0.86931818181817-1.2170454545454,2.0284090909091-1.2170454545454c1.275,0,2.0863636363636,0.48681818181818,2.0863636363636,1.9820454545454l0,2.6079545454545c0,0.54477272727272,0.15068181818182,0.86931818181817,0.59113636363636,0.86931818181817z M42.886363636363,10.397045454545c0-1.6227272727273-3.5468181818182-0.98522727272726-3.5468181818182-3.0252272727272c0-0.75340909090908,0.74181818181818-1.4952272727273,2.1675-1.4952272727273c1.4372727272727,0,1.9472727272727,0.55636363636363,1.9472727272727,1.1706818181818s-0.49840909090909,0.68386363636363-0.61431818181818,0.68386363636363c0-1.0431818181818-0.59113636363636-1.3445454545454-1.3329545454545-1.3445454545454c-0.75340909090908,0-1.4025,0.31295454545454-1.4025,0.88090909090908c0,1.5647727272727,3.5584090909091,1.0895454545454,3.5584090909091,2.9209090909091c0,1.0315909090909-0.95045454545454,1.6111363636364-2.2254545454545,1.6111363636364c-1.1706818181818,0-2.1906818181818-0.51-2.1906818181818-1.0895454545454c0-0.51,0.57954545454545-0.5215909090909,0.57954545454545-0.5215909090909s0.32454545454545,1.0779545454545,1.6690909090909,1.0779545454545c0.95045454545454,0,1.3909090909091-0.49840909090909,1.3909090909091-0.86931818181817z M47.372045454545,10.420227272727c0,0,0.40568181818181,0.023181818181818,0.40568181818181,0.45204545454545c0,0.41727272727272-0.49840909090909,0.84613636363636-1.275,0.84613636363636c-0.74181818181818,0-1.4140909090909-0.47522727272727-1.4140909090909-1.8081818181818l0-3.3613636363636l-0.83454545454545,0l0-0.42886363636363c0.63749999999999,0,1.1127272727273-0.16227272727273,1.1359090909091-1.0663636363636l0.46363636363636,0l0,1.0663636363636c1.3561363636364,0,1.5415909090909-0.26659090909091,1.5415909090909-0.39409090909091c0.19704545454545,0.034772727272727,0.34772727272727,0.13909090909091,0.34772727272727,0.34772727272727c0,0.27818181818182-0.26659090909091,0.47522727272727-0.76499999999999,0.47522727272727l-1.1243181818182,0l0,3.3613636363636c0,0.6490909090909,0.1275,1.2865909090909,0.73022727272727,1.2865909090909c0.63749999999999,0,0.78818181818181-0.7765909090909,0.78818181818181-0.7765909090909z  M56.760681818181,3.6743181818182c1.2054545454545,0,1.4488636363636,0.30136363636363,1.4604545454545,1.1011363636364c0,0.42886363636363-0.30136363636363,0.9040909090909-0.68386363636363,0.9040909090909c0-1.0431818181818-0.37090909090909-1.4952272727273-1.6806818181818-1.4952272727273c-0.75340909090908,0-1.7965909090909,0.069545454545454-1.7965909090909,0.56795454545454l0,2.4340909090909l1.9820454545454,0c0.57954545454545,0,0.67227272727272,0.26659090909091,0.67227272727272,0.44045454545454c0,0.33613636363636-0.41727272727272,0.67227272727272-0.74181818181818,0.67227272727272c0-0.31295454545454-0.22022727272727-0.5215909090909-0.74181818181818-0.5215909090909l-1.1706818181818,0l0,2.8629545454545c0,0.41727272727272,1.1243181818182,0.42886363636363,1.9356818181818,0.42886363636363c1.5184090909091,0,1.9125-1.1475,1.9125-1.3445454545454c0.33613636363636,0,0.62590909090909,0.32454545454545,0.62590909090909,0.67227272727272c0,0.99681818181817-1.1590909090909,1.1938636363636-2.2834090909091,1.1938636363636l-3.9640909090909,0l0-0.41727272727272l0.3825,0c0.24340909090909,0,0.55636363636363-0.15068181818182,0.55636363636363-0.5215909090909l0-6.0272727272727c0-0.20863636363636-0.081136363636363-0.54477272727272-0.55636363636363-0.54477272727272l-0.35931818181818,0l0-0.33613636363636l1.6459090909091,0c0.56795454545454,0,2.2138636363636-0.069545454545454,2.805-0.069545454545454z M62.277954545454,3.2338636363636c0.74181818181818,0,1.4604545454545,0.22022727272727,1.4604545454545,0.89249999999999c0,0.59113636363636-0.3825,0.59113636363636-0.54477272727272,0.59113636363636c0-0.32454545454545-0.057954545454545-0.99681818181817-0.91568181818181-0.99681818181817c-0.76499999999999,0-1.0895454545454,0.63749999999999-1.0895454545454,1.6922727272727l0,0.70704545454545l1.4488636363636,0c0.30136363636363,0,0.5215909090909,0.092727272727272,0.5215909090909,0.37090909090909c0,0.37090909090909-0.40568181818181,0.56795454545454-0.40568181818181,0.56795454545454c0-0.33613636363636-0.42886363636363-0.47522727272727-1.1475-0.47522727272727l-0.41727272727272,0l0,4.0336363636363c0,0.33613636363636,0.15068181818182,0.67227272727272,0.67227272727272,0.67227272727272l0.24340909090909,0l0,0.30136363636363l-2.5847727272727,0l0-0.30136363636363l0.27818181818182,0c0.51,0,0.62590909090909-0.37090909090909,0.62590909090909-0.67227272727272l0-4.0336363636363l-0.9040909090909,0l0-0.46363636363636l0.22022727272727,0c0.68386363636363,0,0.68386363636363-0.59113636363636,0.68386363636363-0.59113636363636c0-1.9704545454545,1.1127272727273-2.295,1.8545454545454-2.295z M66.798409090909,3.2338636363636c0.74181818181818,0,1.4604545454545,0.22022727272727,1.4604545454545,0.89249999999999c0,0.59113636363636-0.3825,0.59113636363636-0.54477272727272,0.59113636363636c0-0.32454545454545-0.057954545454545-0.99681818181817-0.91568181818181-0.99681818181817c-0.76499999999999,0-1.0895454545454,0.63749999999999-1.0895454545454,1.6922727272727l0,0.70704545454545l1.4488636363636,0c0.30136363636363,0,0.5215909090909,0.092727272727272,0.5215909090909,0.37090909090909c0,0.37090909090909-0.40568181818181,0.56795454545454-0.40568181818181,0.56795454545454c0-0.33613636363636-0.42886363636363-0.47522727272727-1.1475-0.47522727272727l-0.41727272727272,0l0,4.0336363636363c0,0.33613636363636,0.15068181818182,0.67227272727272,0.67227272727272,0.67227272727272l0.24340909090909,0l0,0.30136363636363l-2.5847727272727,0l0-0.30136363636363l0.27818181818182,0c0.51,0,0.62590909090909-0.37090909090909,0.62590909090909-0.67227272727272l0-4.0336363636363l-0.9040909090909,0l0-0.46363636363636l0.22022727272727,0c0.68386363636363,0,0.68386363636363-0.59113636363636,0.68386363636363-0.59113636363636c0-1.9704545454545,1.1127272727273-2.295,1.8545454545454-2.295z M70.414772727272,4.2190909090909c0,0.30136363636363-0.255,0.46363636363636-0.56795454545454,0.46363636363636c-0.28977272727272,0-0.55636363636363-0.17386363636363-0.55636363636363-0.46363636363636c0-0.31295454545454,0.255-0.48681818181818,0.55636363636363-0.48681818181818c0.33613636363636,0,0.56795454545454,0.17386363636363,0.56795454545454,0.48681818181818z M70.889999999999,11.301136363636l0.27818181818182,0l0,0.30136363636363l-2.5731818181818,0l0-0.30136363636363l0.27818181818182,0c0.26659090909091,0,0.62590909090909-0.17386363636363,0.62590909090909-0.63749999999999l0-3.6279545454545c0-0.3825-0.18545454545454-0.60272727272727-0.59113636363636-0.60272727272727l-0.27818181818182,0l0-0.30136363636363l0.79977272727272,0c0.66068181818181,0,0.83454545454545,0.33613636363636,0.83454545454545,0.9040909090909l0,3.6279545454545c0,0.42886363636363,0.35931818181818,0.63749999999999,0.62590909090909,0.63749999999999z M74.610681818181,6.375c-1.1590909090909,0-1.9936363636363,1.1127272727273-1.9936363636363,2.4572727272727c0,1.3213636363636,0.82295454545454,2.3761363636363,1.9240909090909,2.3761363636363c1.0547727272727,0,1.4720454545454-0.71863636363636,1.6575-1.0315909090909c0.255,0.13909090909091,0.37090909090909,0.27818181818182,0.37090909090909,0.47522727272727c0,0.44045454545454-0.53318181818181,1.0779545454545-2.1211363636363,1.0779545454545c-1.7270454545454,0-2.6659090909091-1.4836363636364-2.6659090909091-2.8977272727272s0.86931818181817-2.9904545454545,2.805-2.9904545454545c1.3329545454545,0,2.0284090909091,0.255,2.0284090909091,1.2054545454545c0,0.55636363636363-0.33613636363636,0.74181818181818-0.67227272727272,0.74181818181818c0-1.02-0.19704545454545-1.4140909090909-1.3329545454545-1.4140909090909z M79.223863636363,4.2190909090909c0,0.30136363636363-0.255,0.46363636363636-0.56795454545454,0.46363636363636c-0.28977272727272,0-0.55636363636363-0.17386363636363-0.55636363636363-0.46363636363636c0-0.31295454545454,0.255-0.48681818181818,0.55636363636363-0.48681818181818c0.33613636363636,0,0.56795454545454,0.17386363636363,0.56795454545454,0.48681818181818z M79.69909090909,11.301136363636l0.27818181818182,0l0,0.30136363636363l-2.5731818181818,0l0-0.30136363636363l0.27818181818182,0c0.26659090909091,0,0.62590909090909-0.17386363636363,0.62590909090909-0.63749999999999l0-3.6279545454545c0-0.3825-0.18545454545454-0.60272727272727-0.59113636363636-0.60272727272727l-0.27818181818182,0l0-0.30136363636363l0.79977272727272,0c0.66068181818181,0,0.83454545454545,0.33613636363636,0.83454545454545,0.9040909090909l0,3.6279545454545c0,0.42886363636363,0.35931818181818,0.63749999999999,0.62590909090909,0.63749999999999z M84.984545454545,9.0524999999999c-1.8081818181818,0-2.0631818181818,0-2.4340909090909,0.23181818181818c-0.092727272727272-0.092727272727272-0.13909090909091-0.32454545454545-0.13909090909091-0.39409090909091c0-0.35931818181818,0.53318181818181-0.35931818181818,1.02-0.35931818181818l1.4140909090909,0c0.24340909090909,0,0.35931818181818-0.069545454545454,0.35931818181818-0.31295454545454c0-0.97363636363636-0.51-1.8777272727273-1.6459090909091-1.8777272727273c-1.3561363636364,0-1.9820454545454,1.275-1.9820454545454,2.55c0,1.1590909090909,0.74181818181818,2.3297727272727,1.9009090909091,2.3297727272727c1.1359090909091,0,1.5763636363636-0.62590909090909,1.8197727272727-1.02c0.18545454545454,0.069545454545454,0.35931818181818,0.30136363636363,0.35931818181818,0.44045454545454c0,0.51-0.66068181818181,1.0895454545454-2.1790909090909,1.0895454545454c-1.9125,0-2.7006818181818-1.5415909090909-2.7006818181818-2.8397727272727c0-1.7154545454545,0.95045454545454-3.06,2.8165909090909-3.06c1.3793181818182,0,2.3761363636363,0.97363636363636,2.3761363636363,2.3761363636363c0,0.84613636363636-0.28977272727272,0.84613636363636-0.98522727272726,0.84613636363636z M93.109772727272,11.289545454545l0.16227272727273,0l0,0.30136363636363l-0.74181818181818,0c-0.62590909090909,0-0.88090909090908-0.48681818181818-0.88090909090908-1.0315909090909l0-2.4456818181818c0-1.1822727272727-0.51-1.6459090909091-1.3561363636364-1.6459090909091c-0.99681818181817,0-1.785,0.88090909090908-1.785,2.3413636363636l0,1.9009090909091c0,0.27818181818182,0.1275,0.57954545454545,0.45204545454545,0.57954545454545l0.23181818181818,0l0,0.30136363636363l-2.2834090909091,0l0-0.30136363636363l0.30136363636363,0c0.22022727272727,0,0.53318181818181-0.18545454545454,0.53318181818181-0.51l0-3.7554545454545c0-0.26659090909091-0.081136363636363-0.62590909090909-0.56795454545454-0.62590909090909l-0.26659090909091,0l0-0.27818181818182l0.76499999999999,0c0.67227272727272,0,0.79977272727272,0.39409090909091,0.79977272727272,0.84613636363636c0.28977272727272-0.49840909090909,0.98522727272726-1.0547727272727,1.9356818181818-1.0547727272727c1.3909090909091,0,2.0168181818182,0.83454545454545,2.0168181818182,1.9356818181818l0,2.7006818181818c0,0.27818181818182,0.13909090909091,0.74181818181818,0.68386363636363,0.74181818181818z M96.795681818181,10.420227272727c0,0,0.40568181818181,0.023181818181818,0.40568181818181,0.45204545454545c0,0.41727272727272-0.49840909090909,0.84613636363636-1.275,0.84613636363636c-0.74181818181818,0-1.4140909090909-0.47522727272727-1.4140909090909-1.8081818181818l0-3.3613636363636l-0.83454545454545,0l0-0.42886363636363c0.63749999999999,0,1.1127272727273-0.16227272727273,1.1359090909091-1.0663636363636l0.46363636363636,0l0,1.0663636363636c1.3561363636364,0,1.5415909090909-0.26659090909091,1.5415909090909-0.39409090909091c0.19704545454545,0.034772727272727,0.34772727272727,0.13909090909091,0.34772727272727,0.34772727272727c0,0.27818181818182-0.26659090909091,0.47522727272727-0.76499999999999,0.47522727272727l-1.1243181818182,0l0,3.3613636363636c0,0.6490909090909,0.1275,1.2865909090909,0.73022727272727,1.2865909090909c0.63749999999999,0,0.78818181818181-0.7765909090909,0.78818181818181-0.7765909090909z"></path>
</svg>
</defs>
<defs>
<svg width="92px" height="92px" xmlns="http://www.w3.org/2000/svg" xmlns:xlink="http://www.w3.org/1999/xlink" version="1.1" x="0px" y="0px" viewBox="-144 1589.8 80 80" style="enable-background:new -144 1589.8 80 80;" id="a1495532397945"><style type="text/css">
	.st0{fill:#1A212C;}
	.line{fill:#1A212C;}
</style>
<path class="st0" d="M-113.4,1635.6c-0.3-0.6-0.5-1.1-0.7-1.7c-2.4-7.2,1.5-15.1,8.7-17.5c0.5-0.2,0.9-0.3,1.4-0.4  c0,0,0.2,1.1,0.4,1.3l-3.1,1.4l5,1.9l1.9-4.8l-2.7,1.1c-0.1-0.6,0-1.1,0-1.1c6.3-0.7,12.6,3.1,14.7,9.3c0.8,2.4,0.9,4.9,0.4,7.2  c0,0-1.5-0.5-3.1-0.2l-0.5-3l-3.1,4.2l4.2,3l-0.4-2.8c1.3-0.1,2.4,0.6,2.4,0.6c-1.4,3.8-4.4,7.1-8.6,8.4c-2,0.7-3.8,0.9-5.7,0.6  c0,0,0.1-0.5,0.1-1.1l3.4,0.3l-3.5-4.1l-4,3.4l3,0.3c-0.1,0.5-0.4,0.9-0.4,0.9c-3.8-0.8-7-2.9-9-6.4c0,0,1-0.6,1.7-1.4l2.3,2.5  l0.3-5.3l-5.2-0.3l1.9,2.4C-112.5,1635.2-113.4,1635.6-113.4,1635.6z"></path>
<g>
	<path class="st0" d="M-80.6,1606.7c0,0,0,0.2,0,0.6c0,0.2,0,0.4-0.1,0.7c0,0.3-0.1,0.6-0.2,1c-0.2,0.7-0.4,1.6-0.9,2.6   s-1.2,2-2.3,2.8c-1.1,0.9-2.5,1.4-4.1,1.6c-0.4,0-0.8,0-1.2,0c-0.4,0-0.7-0.1-1.2-0.2c-0.8-0.2-1.6-0.5-2.3-0.9   c-1.5-0.8-2.7-2-3.7-3.4c-0.9-1.4-1.6-3.1-1.7-4.9c-0.1-0.8,0-1.8,0.2-2.7c0.2-0.9,0.6-1.7,1-2.5c1-1.5,2.4-2.8,4-3.5   c0.8-0.4,1.6-0.6,2.5-0.7c0.4-0.1,0.8-0.1,1.3-0.1s0.8,0,1.2,0.1c1.7,0.2,3.1,0.8,4.2,1.7c0.9,0.8,1.7,1.9,2.1,2.9   c0.5,1,0.7,1.9,0.9,2.6c0.1,0.4,0.1,0.7,0.2,1c0,0.3,0.1,0.5,0.1,0.7C-80.6,1606.4-80.6,1606.7-80.6,1606.7L-80.6,1606.7z    M-80.8,1606.7c0,0,0-0.2,0-0.6s-0.1-1-0.4-1.6c-0.2-0.7-0.6-1.5-1.3-2.2c-0.6-0.7-1.5-1.4-2.5-2c-1-0.5-2.2-0.9-3.4-1   c-1.3-0.2-2.6,0-3.9,0.5c-1.3,0.5-2.5,1.4-3.3,2.6c-0.4,0.6-0.8,1.3-1.1,2c-0.3,0.7-0.4,1.4-0.5,2.3c0,0.8,0,1.6,0.2,2.4   c0.2,0.8,0.5,1.5,1,2.2c0.5,0.7,1,1.2,1.6,1.7c0.6,0.5,1.3,0.8,2,1c0.7,0.2,1.4,0.4,2.1,0.4c0.3,0,0.7,0,1.1,0   c0.3,0,0.6-0.1,0.9-0.1c1.3-0.2,2.4-0.6,3.4-1.2s1.8-1.2,2.5-2c0.6-0.7,1-1.5,1.3-2.2c0.2-0.7,0.3-1.2,0.4-1.6   C-80.8,1606.9-80.8,1606.7-80.8,1606.7L-80.8,1606.7z"></path></g><g><path class="st0" d="M-75.8,1646.9c0,0,0,0.1-0.1,0.4c-0.1,0.3-0.2,0.7-0.5,1.2s-0.6,1.1-1.2,1.7c-0.5,0.6-1.3,1.3-2.3,1.7   c-1,0.4-2.2,0.6-3.4,0.3c-0.3-0.1-0.6-0.1-0.9-0.3c-0.3-0.1-0.5-0.2-0.8-0.4c-0.6-0.3-1.1-0.7-1.5-1.2c-0.9-0.9-1.5-2.1-1.9-3.3   c-0.4-1.2-0.5-2.6-0.3-3.9c0.1-0.6,0.4-1.3,0.7-2c0.3-0.6,0.8-1.2,1.3-1.7c1-1,2.4-1.6,3.7-1.8c0.7-0.1,1.4-0.1,2,0   c0.3,0,0.6,0.1,1,0.2c0.4,0.1,0.5,0.2,0.9,0.3c1.2,0.5,2.1,1.3,2.7,2.2s0.9,1.8,1,2.7c0.1,0.8,0.1,1.5,0,2.1s-0.2,1-0.2,1.3   C-75.8,1646.8-75.8,1646.9-75.8,1646.9L-75.8,1646.9z M-76,1646.9c0,0,0-0.2,0.1-0.4c0.1-0.3,0.1-0.7,0.1-1.2s-0.2-1.2-0.5-1.8   c-0.3-0.6-0.8-1.3-1.4-1.8s-1.4-1.1-2.2-1.3c-0.9-0.3-1.8-0.5-2.8-0.4c-1,0.1-2,0.5-2.8,1.1c-0.4,0.3-0.8,0.7-1.2,1.1   c-0.4,0.4-0.6,0.9-0.9,1.5c-0.5,1.1-0.5,2.3-0.2,3.5c0.4,1.1,1.1,2.1,2.1,2.7c0.5,0.3,1,0.5,1.4,0.6c0.2,0.1,0.5,0.1,0.8,0.2   c0.2,0,0.5,0.1,0.7,0.1c0.9,0.1,1.8,0,2.6-0.1c0.8-0.2,1.6-0.4,2.2-0.8c0.6-0.4,1.1-0.8,1.4-1.3c0.3-0.4,0.5-0.8,0.6-1.1   C-76.1,1647-76,1646.9-76,1646.9L-76,1646.9z"></path></g><g><path class="st0" d="M-109.4,1651.8c0,0,0,0.2,0,0.6c0,0.2,0,0.4-0.1,0.7c0,0.3-0.1,0.6-0.1,1c-0.2,0.7-0.4,1.6-0.9,2.5   s-1.2,2-2.2,2.8c-1,0.8-2.5,1.4-4,1.5c-0.4,0-0.7,0-1.2,0c-0.4,0-0.7-0.1-1.1-0.2c-0.8-0.2-1.6-0.5-2.3-0.9   c-1.4-0.8-2.6-1.9-3.6-3.3c-0.9-1.4-1.5-3-1.7-4.8c-0.1-0.8,0-1.7,0.2-2.6s0.5-1.7,1-2.4c0.9-1.5,2.3-2.7,3.9-3.4   c0.8-0.4,1.6-0.6,2.4-0.7c0.4-0.1,0.8-0.1,1.2-0.1c0.5,0,0.7,0,1.1,0.1c1.7,0.2,3,0.8,4.1,1.7c1.1,0.8,1.8,1.9,2.2,2.8   c0.5,0.9,0.7,1.8,0.9,2.5c0.1,0.4,0.1,0.7,0.1,1c0,0.3,0.1,0.5,0.1,0.7C-109.4,1651.6-109.4,1651.8-109.4,1651.8L-109.4,1651.8z    M-109.6,1651.8c0,0,0-0.2,0-0.6s-0.1-0.9-0.3-1.6c-0.2-0.7-0.6-1.4-1.2-2.1c-0.6-0.7-1.4-1.4-2.4-1.9s-2.1-0.9-3.3-1   c-1.3-0.1-2.5,0.1-3.8,0.6c-1.2,0.5-2.4,1.4-3.2,2.5c-0.4,0.6-0.8,1.2-1,1.9c-0.3,0.7-0.4,1.4-0.5,2.2c0,0.7,0,1.5,0.2,2.3   c0.2,0.7,0.5,1.5,0.9,2.1s0.9,1.2,1.6,1.7c0.6,0.4,1.3,0.8,1.9,1c0.7,0.2,1.4,0.4,2,0.4c0.3,0,0.7,0,1,0s0.6-0.1,0.9-0.1   c1.2-0.2,2.3-0.6,3.3-1.1s1.8-1.2,2.4-1.9c0.6-0.7,1-1.5,1.2-2.1c0.2-0.7,0.3-1.2,0.3-1.6C-109.6,1652-109.6,1651.8-109.6,1651.8   L-109.6,1651.8z"></path></g><g><path class="st0" d="M-116.4,1616.7c0,0,0,0.2,0,0.7c0,0.2,0,0.5-0.1,0.8c0,0.3-0.1,0.7-0.2,1.1c-0.2,0.8-0.5,1.8-1,2.9   c-0.6,1.1-1.4,2.2-2.6,3.1c-1.2,0.9-2.8,1.6-4.5,1.7c-0.4,0-0.9,0-1.4,0c-0.4-0.1-0.8-0.1-1.3-0.2c-0.9-0.2-1.8-0.5-2.6-1   c-1.6-0.9-3-2.2-4.1-3.8c-1-1.6-1.7-3.4-1.9-5.5c-0.1-0.9,0-2,0.2-2.9c0.3-1,0.6-1.9,1.2-2.8c1.1-1.7,2.6-3.1,4.4-3.9   c0.9-0.4,1.8-0.7,2.7-0.8c0.5-0.1,0.9-0.1,1.4-0.1c0.6,0,0.8,0,1.3,0.1c1.9,0.2,3.4,0.9,4.6,1.9c1.2,0.9,2,2.1,2.6,3.2   c0.6,1.1,0.8,2.1,1,2.9c0.1,0.4,0.1,0.8,0.2,1.1c0,0.3,0.1,0.6,0.1,0.8C-116.4,1616.5-116.4,1616.7-116.4,1616.7L-116.4,1616.7z    M-116.6,1616.7c0,0,0-0.2,0-0.7c0-0.4-0.1-1.1-0.4-1.8c-0.3-0.8-0.7-1.6-1.4-2.5c-0.7-0.8-1.6-1.6-2.8-2.2   c-1.1-0.6-2.5-1.1-3.8-1.2c-1.5-0.1-3,0.1-4.4,0.7c-0.7,0.3-1.4,0.7-2.1,1.2c-0.6,0.5-1.2,1.1-1.7,1.8c-0.5,0.7-0.9,1.4-1.2,2.2   s-0.5,1.6-0.6,2.5c0,0.8,0,1.8,0.2,2.6c0.2,0.9,0.6,1.7,1.1,2.4s1.1,1.4,1.8,1.9c0.7,0.5,1.5,0.9,2.2,1.2c0.8,0.3,1.6,0.4,2.3,0.5   c0.3,0,0.8,0,1.2,0c0.3,0,0.7-0.1,1.1-0.1c1.4-0.2,2.7-0.7,3.9-1.3c1.1-0.6,2.1-1.4,2.8-2.3c0.7-0.8,1.1-1.7,1.4-2.5   c0.3-0.8,0.3-1.4,0.4-1.8C-116.6,1616.9-116.6,1616.7-116.6,1616.7L-116.6,1616.7z"></path></g>
	<g>
		<g>
			<path class="line" d="M-84.1,1637.3c0,0-0.1-0.1-0.2-0.4c-0.1-0.2-0.2-0.5-0.5-0.8c-0.4-0.7-1.2-1.5-2.1-2.1c-0.5-0.3-1-0.5-1.5-0.7    c-0.5-0.2-1-0.3-1.4-0.3c-0.4-0.1-0.8-0.1-1.1-0.1c-0.3,0-0.4,0-0.4,0l0-0.4c0,0,0.2,0,0.4,0c0.3,0,0.6-0.1,1.1-0.1    c0.5,0,1,0,1.6,0.1c0.6,0.1,1.2,0.2,1.8,0.5c1.2,0.5,2.3,1.3,3,2c0.3,0.4,0.6,0.7,0.8,1c0.1,0.2,0.2,0.3,0.2,0.3L-84.1,1637.3z"></path>
			<g>
				<polygon class="line" points="-90.6,1635.1 -91.3,1630.3 -93.4,1633"></polygon>
			</g>
		</g>
	</g>
	<g>
		<g>
			<path class="line" d="M-99.2,1609.1C-99.2,1609.1-99.2,1609.1-99.2,1609.1c-0.1,0.1-0.2,0.1-0.3,0.2c-0.2,0.1-0.6,0.3-0.9,0.6    c-0.4,0.3-0.8,0.7-1.1,1.2c-0.4,0.5-0.7,1-0.9,1.6c-0.1,0.3-0.2,0.6-0.3,0.9c-0.1,0.3-0.1,0.6-0.2,0.9c0,0.3,0,0.6,0,0.9    c0,0.3,0,0.6,0.1,0.8c0,0.5,0.2,0.9,0.2,1.2c0.1,0.3,0.1,0.5,0.1,0.5l-0.3,0.1c0,0-0.1-0.2-0.2-0.5c-0.1-0.3-0.3-0.7-0.4-1.2    c-0.1-0.3-0.2-0.5-0.2-0.9c0-0.3-0.1-0.6-0.1-1c0-0.3,0-0.7,0-1.1c0.1-0.4,0.1-0.7,0.2-1.1c0.2-0.7,0.5-1.5,0.8-2.1    c0.4-0.6,0.8-1.2,1.2-1.6c0.4-0.4,0.8-0.8,1-1c0.1-0.1,0.3-0.2,0.3-0.3c0.1-0.1,0.1-0.1,0.1-0.1L-99.2,1609.1z"></path>
			<g>
				<polygon class="line" points="-100.6,1616.8 -105.1,1618.6 -102,1619.9    "></polygon>
			</g>
		</g>
	</g>
	<g>
		<g>
			<path class="line" d="M-109.3,1647C-109.3,1647-109.3,1647-109.3,1647c0.1,0,0.2,0,0.4,0c0.2,0,0.6,0,1-0.1c0.4-0.1,0.9-0.2,1.4-0.5    c0.5-0.2,1-0.6,1.4-0.9c0.2-0.2,0.4-0.4,0.6-0.6c0.2-0.2,0.4-0.5,0.5-0.7c0.1-0.3,0.3-0.5,0.4-0.7c0.1-0.2,0.2-0.5,0.3-0.7    c0.2-0.4,0.3-0.8,0.4-1.1c0.1-0.3,0.1-0.4,0.1-0.4l0.3,0c0,0,0,0.2-0.1,0.5c0,0.3-0.1,0.7-0.2,1.2c-0.1,0.2-0.1,0.5-0.2,0.8    c-0.1,0.3-0.2,0.6-0.3,0.9c-0.1,0.3-0.3,0.6-0.5,0.9c-0.2,0.3-0.4,0.6-0.6,0.8c-0.5,0.5-1,1-1.5,1.4c-0.6,0.4-1.1,0.7-1.6,0.9    c-0.5,0.2-1,0.3-1.3,0.4c-0.2,0-0.3,0.1-0.4,0.1c-0.1,0-0.1,0-0.1,0L-109.3,1647z"></path>
			<g>
				<polygon class="line" points="-105,1641.4 -100.2,1641.8 -102.4,1639.1    "></polygon>
			</g>
		</g>
	</g>
	<g>
		<g>
			<path class="line" d="M-124.9,1628.3c0,0,0,0.1-0.1,0.2c0,0.1-0.1,0.4-0.1,0.6c0,0.3-0.1,0.6-0.1,1c0,0.4,0,0.8,0,1.3c0,0.2,0.1,0.5,0.1,0.7    c0.1,0.3,0.1,0.5,0.2,0.8c0.1,0.3,0.2,0.5,0.3,0.8c0.1,0.3,0.3,0.5,0.5,0.7c0.2,0.2,0.4,0.5,0.6,0.7c0.2,0.2,0.5,0.4,0.7,0.6    c0.5,0.3,1.1,0.7,1.8,0.9c0.6,0.3,1.3,0.4,2,0.5c0.7,0.1,1.3,0.1,1.9,0c1.3-0.2,2.4-0.7,3.4-1.2c0.9-0.5,1.7-1,2.2-1.3    c0.5-0.4,0.8-0.6,0.8-0.6l0.1,0.1c0,0-0.3,0.2-0.8,0.6c-0.5,0.4-1.2,0.9-2.1,1.5c-0.9,0.6-2.1,1.2-3.5,1.5    c-0.7,0.2-1.5,0.2-2.2,0.1c-0.7-0.1-1.5-0.2-2.2-0.4c-0.7-0.2-1.4-0.5-2.1-0.9c-0.3-0.2-0.7-0.4-0.9-0.7c-0.3-0.3-0.6-0.5-0.8-0.8    c-0.2-0.3-0.5-0.6-0.6-0.9c-0.2-0.3-0.3-0.6-0.5-0.9c-0.1-0.3-0.2-0.6-0.3-0.9c-0.1-0.3-0.2-0.6-0.2-0.9c-0.1-0.6-0.2-1.1-0.2-1.6    c0-0.5,0-0.9,0-1.2c0-0.3,0.1-0.6,0.1-0.8c0-0.2,0-0.3,0-0.3L-124.9,1628.3z"></path>
			<g>
				<polygon class="line" points="-112.5,1632.6 -109.3,1636.3 -109,1632.9    "></polygon>
			</g>
		</g>
	</g>
</svg>
</defs>
	<use id="SvgjsUse2316" xlink:href="#t1495532397945" fill="#ffffff" x="60.30298614501953" y="95.62330436706543"></use>
	<use id="SvgjsUse2317" xlink:href="#s1495532397945" fill="#ffffff" y="150.0247404575348" x="81.84513473510742"></use>
	<use id="SvgjsUse2318" xlink:href="#a1495532397945" fill="#ffffff" x="-7.159847259521484" y="91.92005634307861"></use>
</svg>